<?xml version="1.0" encoding="UTF-8"?>
<svg id="Capa_1" data-name="Capa 1" xmlns="http://www.w3.org/2000/svg" viewBox="0 0 234.29 196.98">
  <defs>
    <style>
      .cls-1 {
        fill: #002e5a;
      }

      .cls-2 {
        fill: #26346d;
      }

      .cls-3 {
        fill: #9a9b9a;
      }
    </style>
  </defs>
  <g>
    <path class="cls-3" d="M131.55,34.9c-5.51,11.05-10.12,22.05-13.82,32.99-3.95,11.64-7.02,17.72-7.45,18.69-2.19,4.6-4.55,8.18-8.82,10.31-1.93-2.47-5.25-9.08-9.97-19.84-4.72-10.75-7.2-17.46-7.43-20.13l-.47-5.4c2.22,1.1,4.31,4.31,6.28,9.63,1.24,3.52,3.1,8.79,5.58,15.83,2.26,6.28,4.4,10.62,6.42,13.04,3.16-2.92,5.97-7.8,8.43-14.65,1.57-4.64,3.95-11.63,7.13-20.97,3.02-8.61,6.34-15.66,9.95-21.16,1.33-.12,2.73.43,4.18,1.65"/>
    <path class="cls-1" d="M149.99,114.18c-4.81-8.86-8.89-17.71-12.22-26.54-3.56-9.39-5.53-14.48-5.91-15.25-1.92-3.69-4.65-6.34-8.19-7.96-1.5,2.07-4.03,7.57-7.58,16.48-3.55,8.91-5.38,14.46-5.5,16.65l-.23,4.42c1.78-.96,3.4-3.64,4.85-8.04.91-2.91,2.28-7.27,4.1-13.08,1.66-5.19,3.29-8.8,4.87-10.83,2.67,2.29,5.1,6.2,7.3,11.72,1.41,3.74,3.55,9.38,6.42,16.91,2.71,6.94,5.62,12.61,8.72,16.99,1.09.06,2.21-.43,3.37-1.47"/>
  </g>
  <g>
    <path class="cls-2" d="M66.79,156.94l.07.67c.17-.24.38-.43.64-.56.26-.13.56-.2.9-.2s.63.08.88.24c.24.16.43.39.55.71.16-.29.37-.52.64-.69.26-.17.57-.26.93-.26.52,0,.93.18,1.23.54.3.36.45.9.45,1.61v3.06h-.93v-3.07c0-.5-.09-.86-.26-1.07s-.43-.31-.78-.31c-.32,0-.58.11-.77.33s-.31.5-.35.84v3.29h-.94v-3.07c0-.48-.09-.83-.27-1.05-.18-.22-.43-.33-.77-.33-.28,0-.52.06-.7.17-.18.12-.32.28-.42.49v3.79h-.93v-5.12h.83Z"/>
    <path class="cls-2" d="M77.51,162.16c-.71,0-1.28-.24-1.7-.71-.42-.47-.63-1.09-.63-1.85v-.21c0-.73.22-1.33.65-1.82.43-.48.95-.73,1.54-.73.69,0,1.21.21,1.56.62.35.42.53.97.53,1.67v.58h-3.32v.02c0,.49.12.89.36,1.21s.57.47,1.01.47c.31,0,.59-.05.83-.13.24-.09.44-.21.62-.37l.36.61c-.18.18-.42.33-.72.45-.3.12-.66.18-1.09.18ZM77.37,157.58c-.31,0-.58.13-.8.39-.22.26-.36.59-.41.99v.02h2.37v-.12c0-.36-.1-.67-.29-.91-.2-.25-.49-.37-.87-.37Z"/>
    <path class="cls-2" d="M84.45,160.7c0-.21-.08-.37-.23-.51s-.45-.25-.89-.35c-.62-.14-1.09-.32-1.4-.55-.31-.23-.47-.55-.47-.95s.18-.77.53-1.06c.35-.29.81-.44,1.38-.44.6,0,1.07.15,1.42.46.35.31.52.68.5,1.12v.03h-.9c0-.22-.09-.42-.28-.6-.19-.18-.44-.27-.74-.27-.33,0-.58.07-.74.22s-.24.32-.24.52.07.36.21.48c.14.12.43.22.87.31.65.14,1.13.33,1.44.56.31.24.47.56.47.96,0,.45-.18.82-.55,1.1-.37.28-.85.42-1.44.42-.65,0-1.17-.17-1.54-.5-.38-.33-.55-.72-.53-1.16v-.03h.9c.02.33.14.57.37.72.23.15.5.23.81.23.33,0,.59-.07.78-.2.19-.13.28-.31.28-.53Z"/>
    <path class="cls-2" d="M90.65,162.06c-.03-.15-.06-.29-.07-.41s-.03-.24-.03-.36c-.17.25-.4.45-.68.62-.28.17-.58.25-.9.25-.53,0-.94-.14-1.22-.41s-.42-.65-.42-1.13.2-.87.59-1.15c.4-.28.93-.41,1.61-.41h1.01v-.51c0-.3-.09-.54-.27-.71-.18-.18-.44-.26-.78-.26-.3,0-.54.08-.73.23-.19.15-.28.34-.28.55h-.89v-.03c-.03-.37.15-.71.52-1.02s.85-.46,1.44-.46,1.05.15,1.4.44c.35.29.53.72.53,1.27v2.46c0,.18,0,.36.03.53.02.17.05.34.1.5h-.96ZM89.11,161.38c.34,0,.64-.09.91-.26s.45-.37.53-.59v-.83h-1.04c-.37,0-.68.09-.9.28-.23.19-.34.41-.34.66,0,.23.07.41.21.54.14.13.35.2.63.2Z"/>
    <path class="cls-2" d="M94.61,161.83l-.71,1.45h-.55l.33-1.49v-.77h.93v.82Z"/>
    <path class="cls-2" d="M102.14,161.43c.31,0,.58-.1.82-.29.23-.19.35-.42.35-.7h.84v.03c.03.44-.17.83-.58,1.18s-.88.52-1.43.52c-.74,0-1.31-.24-1.71-.73-.39-.49-.59-1.09-.59-1.83v-.2c0-.73.2-1.34.59-1.82.4-.49.96-.73,1.7-.73.6,0,1.09.18,1.47.53.38.35.56.79.55,1.3v.03h-.85c0-.31-.11-.58-.33-.8s-.5-.33-.84-.33c-.49,0-.84.18-1.05.53-.21.35-.31.78-.31,1.29v.2c0,.52.1.96.31,1.31.21.35.56.52,1.05.52Z"/>
    <path class="cls-2" d="M105.95,159.45c0-.76.2-1.38.61-1.87.41-.49.97-.73,1.67-.73s1.27.24,1.68.73c.41.49.62,1.11.62,1.87v.1c0,.76-.21,1.39-.61,1.87-.41.49-.97.73-1.67.73s-1.26-.24-1.68-.73c-.41-.49-.62-1.11-.62-1.87v-.1ZM106.88,159.56c0,.54.11.99.34,1.34s.57.53,1.02.53.78-.18,1.01-.53c.23-.35.35-.8.35-1.34v-.1c0-.54-.12-.98-.35-1.34-.23-.36-.57-.53-1.02-.53s-.78.18-1.01.53c-.23.36-.34.8-.34,1.34v.1Z"/>
    <path class="cls-2" d="M114.72,161.43c.31,0,.58-.1.82-.29.23-.19.35-.42.35-.7h.84v.03c.03.44-.17.83-.58,1.18s-.88.52-1.43.52c-.74,0-1.31-.24-1.71-.73-.39-.49-.59-1.09-.59-1.83v-.2c0-.73.2-1.34.59-1.82.4-.49.96-.73,1.7-.73.6,0,1.09.18,1.47.53.38.35.56.79.55,1.3v.03h-.85c0-.31-.11-.58-.33-.8s-.5-.33-.84-.33c-.49,0-.84.18-1.05.53-.21.35-.31.78-.31,1.29v.2c0,.52.1.96.31,1.31.21.35.56.52,1.05.52Z"/>
    <path class="cls-2" d="M119.75,155.63h-.93v-.95h.93v.95ZM119.75,162.06h-.93v-5.12h.93v5.12Z"/>
    <path class="cls-2" d="M122.98,156.94l.07.76c.17-.27.38-.48.64-.63.26-.15.55-.22.88-.22.55,0,.98.16,1.28.48.3.32.45.82.45,1.5v3.23h-.93v-3.21c0-.45-.09-.77-.27-.96-.18-.19-.45-.28-.82-.28-.27,0-.51.06-.71.19-.21.13-.37.31-.49.53v3.73h-.93v-5.12h.83Z"/>
    <path class="cls-2" d="M131.77,162.06c-.03-.15-.06-.29-.07-.41s-.03-.24-.03-.36c-.17.25-.4.45-.68.62-.28.17-.58.25-.9.25-.53,0-.94-.14-1.22-.41s-.42-.65-.42-1.13.2-.87.59-1.15c.4-.28.93-.41,1.61-.41h1.01v-.51c0-.3-.09-.54-.27-.71-.18-.18-.44-.26-.78-.26-.3,0-.54.08-.73.23-.19.15-.28.34-.28.55h-.89v-.03c-.03-.37.15-.71.52-1.02s.85-.46,1.44-.46,1.05.15,1.4.44c.35.29.53.72.53,1.27v2.46c0,.18,0,.36.03.53.02.17.05.34.1.5h-.96ZM130.22,161.38c.34,0,.64-.09.91-.26s.45-.37.53-.59v-.83h-1.04c-.37,0-.68.09-.9.28-.23.19-.34.41-.34.66,0,.23.07.41.21.54.14.13.35.2.63.2Z"/>
    <path class="cls-2" d="M139.86,160.16l.17.64h.03l1.26-3.86h1.04l-2.15,5.9c-.13.34-.31.64-.56.9-.24.25-.57.38-.98.38-.08,0-.17,0-.29-.03-.12-.02-.21-.03-.27-.05l.09-.73s.04,0,.17,0c.13,0,.21.01.25.01.2,0,.36-.09.49-.26s.23-.37.32-.59l.22-.53-1.9-5.01h1.04l1.08,3.22Z"/>
    <path class="cls-2" d="M148.34,156.94l.07.67c.17-.24.38-.43.64-.56.26-.13.56-.2.9-.2s.63.08.88.24c.24.16.43.39.55.71.16-.29.37-.52.64-.69.26-.17.57-.26.93-.26.52,0,.93.18,1.23.54.3.36.45.9.45,1.61v3.06h-.93v-3.07c0-.5-.09-.86-.26-1.07s-.43-.31-.78-.31c-.32,0-.58.11-.77.33s-.31.5-.35.84v3.29h-.94v-3.07c0-.48-.09-.83-.27-1.05-.18-.22-.43-.33-.77-.33-.28,0-.52.06-.7.17-.18.12-.32.28-.42.49v3.79h-.93v-5.12h.83Z"/>
    <path class="cls-2" d="M160.08,162.06c-.03-.15-.06-.29-.07-.41s-.03-.24-.03-.36c-.17.25-.4.45-.68.62-.28.17-.58.25-.9.25-.53,0-.94-.14-1.22-.41s-.42-.65-.42-1.13.2-.87.59-1.15c.4-.28.93-.41,1.61-.41h1.01v-.51c0-.3-.09-.54-.27-.71-.18-.18-.44-.26-.78-.26-.3,0-.54.08-.73.23-.19.15-.28.34-.28.55h-.89v-.03c-.03-.37.15-.71.52-1.02s.85-.46,1.44-.46,1.05.15,1.4.44c.35.29.53.72.53,1.27v2.46c0,.18,0,.36.03.53.02.17.05.34.1.5h-.96ZM158.54,161.38c.34,0,.64-.09.91-.26s.45-.37.53-.59v-.83h-1.04c-.37,0-.68.09-.9.28-.23.19-.34.41-.34.66,0,.23.07.41.21.54.14.13.35.2.63.2ZM159.34,154.97h1.09v.03s-1.27,1.23-1.27,1.23h-.7l.88-1.26Z"/>
    <path class="cls-2" d="M166.21,160.7c0-.21-.08-.37-.23-.51s-.45-.25-.89-.35c-.62-.14-1.09-.32-1.4-.55-.31-.23-.47-.55-.47-.95s.18-.77.53-1.06c.35-.29.81-.44,1.38-.44.6,0,1.07.15,1.42.46.35.31.52.68.5,1.12v.03h-.9c0-.22-.09-.42-.28-.6-.19-.18-.44-.27-.74-.27-.33,0-.58.07-.74.22s-.24.32-.24.52.07.36.21.48c.14.12.43.22.87.31.65.14,1.13.33,1.44.56.31.24.47.56.47.96,0,.45-.18.82-.55,1.1-.37.28-.85.42-1.44.42-.65,0-1.17-.17-1.54-.5-.38-.33-.55-.72-.53-1.16v-.03h.9c.02.33.14.57.37.72.23.15.5.23.81.23.33,0,.59-.07.78-.2.19-.13.28-.31.28-.53Z"/>
  </g>
  <g>
    <path class="cls-2" d="M56.67,139.43c.36-.27.65-.27.86,0l1.35,2.29c.14.16.2.3.16.42-.04.12-.13.24-.3.36-.77.58-1.64,1.03-2.59,1.38-.95.34-2.04.51-3.26.51-1.42,0-2.76-.27-4.02-.81-1.26-.54-2.36-1.28-3.3-2.21-.94-.93-1.69-2.03-2.23-3.29-.54-1.26-.81-2.6-.81-4.02s.27-2.78.81-4.02c.54-1.24,1.28-2.33,2.23-3.26.94-.93,2.05-1.67,3.3-2.2,1.26-.53,2.6-.8,4.02-.8,1.22,0,2.31.17,3.26.5.95.33,1.82.79,2.62,1.36.14.13.22.25.22.38s-.02.23-.05.3l-1.43,2.43c-.16.22-.41.23-.76.03-.63-.4-1.25-.7-1.85-.92-.6-.22-1.27-.32-2.01-.32-.92,0-1.76.17-2.54.5-.77.33-1.44.8-2.01,1.39-.57.59-1.01,1.29-1.34,2.08-.32.79-.49,1.65-.49,2.56s.16,1.78.49,2.58c.32.8.77,1.5,1.34,2.1.57.6,1.24,1.08,2.01,1.43.77.35,1.62.53,2.54.53.74,0,1.43-.12,2.09-.36.66-.24,1.22-.54,1.69-.9Z"/>
    <path class="cls-2" d="M84.69,134.09c0,1.42-.27,2.76-.81,4.01-.54,1.25-1.28,2.34-2.21,3.26-.94.93-2.03,1.66-3.29,2.2-1.26.54-2.6.81-4.02.81s-2.76-.27-4.01-.81c-1.25-.54-2.34-1.27-3.26-2.2-.93-.93-1.66-2.01-2.19-3.26-.53-1.25-.8-2.58-.8-4.01s.27-2.78.8-4.03c.53-1.25,1.26-2.34,2.18-3.26.93-.93,2.01-1.66,3.26-2.2,1.25-.54,2.58-.81,4.01-.81s2.76.27,4.02.81c1.26.54,2.36,1.27,3.29,2.2.93.93,1.67,2.01,2.21,3.26.54,1.25.81,2.59.81,4.03ZM80.73,134.09c0-.92-.16-1.77-.49-2.56-.32-.79-.77-1.48-1.34-2.06-.57-.58-1.24-1.05-2.01-1.39-.77-.34-1.62-.51-2.54-.51s-1.74.17-2.51.51c-.77.34-1.44.8-2.01,1.39-.57.58-1.01,1.27-1.32,2.06-.31.79-.47,1.65-.47,2.56s.16,1.74.47,2.54c.31.79.76,1.48,1.32,2.06.57.58,1.24,1.05,2.01,1.39.77.34,1.61.51,2.51.51s1.76-.17,2.54-.51c.77-.34,1.44-.8,2.01-1.39.57-.58,1.01-1.27,1.34-2.06.32-.79.49-1.64.49-2.54Z"/>
    <path class="cls-2" d="M91.89,143.56v-18.94c0-.14.04-.27.12-.38.08-.11.21-.16.39-.16h8.58c.92,0,1.77.18,2.55.55.78.37,1.45.86,2.01,1.47.56.61.99,1.31,1.31,2.1.31.79.47,1.61.47,2.45,0,1.13-.31,2.2-.93,3.2-.62,1-1.44,1.79-2.47,2.39l3.67,7.28c.07.13.08.25.01.38-.06.13-.18.19-.36.19h-3.48c-.27,0-.48-.15-.62-.46l-3.21-6.47h-4.1v6.39c0,.36-.18.54-.54.54h-2.89c-.34,0-.51-.18-.51-.54ZM100.04,127.56h-4.21v6.04h4.21c.93,0,1.71-.28,2.33-.85.62-.57.93-1.29.93-2.17,0-.43-.08-.83-.24-1.2-.16-.37-.39-.69-.69-.96-.3-.27-.64-.48-1.04-.63-.4-.15-.83-.23-1.29-.23Z"/>
    <path class="cls-2" d="M113.77,124.65c0-.16.05-.3.16-.42.11-.12.26-.18.46-.18h2.75c.38,0,.58.2.59.59v15.78h7.88c.16,0,.3.05.42.16.12.11.18.26.18.46v2.45c0,.38-.2.58-.59.59h-11.25c-.4,0-.59-.2-.59-.59v-18.86Z"/>
    <path class="cls-2" d="M133.03,143.56v-18.91c0-.38.18-.57.54-.57h2.91c.34,0,.51.19.51.57v18.91c0,.36-.17.54-.51.54h-2.91c-.36,0-.54-.18-.54-.54Z"/>
    <path class="cls-2" d="M154.12,143.21l-4.5-12.38-1.43,12.73c-.04.36-.22.54-.54.54h-2.75c-.38,0-.55-.18-.51-.54l2.05-18.96c.04-.36.22-.54.57-.54h3.51c.14,0,.25.04.31.12.06.08.12.2.18.36l4.83,13.35,4.75-13.33c.07-.18.14-.31.2-.39.06-.08.17-.12.31-.12h3.59c.34,0,.53.18.57.54l2.02,18.96c.05.36-.12.54-.51.54h-2.75c-.31,0-.49-.17-.54-.51l-1.38-12.76-4.59,12.38c-.09.2-.17.33-.24.39-.07.06-.18.09-.32.09h-2.27c-.14,0-.25-.03-.32-.09-.07-.06-.14-.19-.22-.39Z"/>
    <path class="cls-2" d="M172.12,143.53l7.61-18.94c.16-.34.39-.51.67-.51h2.27c.32,0,.55.17.67.51l7.61,18.94c.09.18.09.32.01.42-.08.1-.21.15-.39.15h-2.94c-.32,0-.55-.16-.67-.49l-1.29-3.24h-8.28l-1.27,3.24c-.13.32-.35.49-.67.49h-2.97c-.4,0-.51-.19-.35-.57ZM181.53,129.26l-2.89,7.63h5.72l-2.83-7.63Z"/>
  </g>
</svg>