<?xml version="1.0" encoding="UTF-8"?>
<svg id="Capa_1" data-name="Capa 1" xmlns="http://www.w3.org/2000/svg" viewBox="0 0 19.98 19.98">
  <defs>
    <style>
      .cls-1 {
        fill: #fff;
      }

      .cls-2 {
        fill: #dc402a;
      }
    </style>
  </defs>
  <rect class="cls-2" width="19.98" height="19.98"/>
  <g>
    <path class="cls-1" d="M9.54,6.21c0,.99-.35,1.83-1.05,2.53s-1.54,1.05-2.53,1.05-1.83-.35-2.53-1.05-1.05-1.54-1.05-2.53.35-1.83,1.05-2.53,1.54-1.05,2.53-1.05h1.01v-.53h2.56v4.1ZM7.5,5.95c0-.36-.12-.66-.38-.91s-.55-.38-.9-.38-.65.13-.91.38-.38.55-.38.91.12.65.38.9.55.38.91.38.65-.12.9-.38.38-.55.38-.9Z"/>
    <path class="cls-1" d="M17.4,5.95c0,1.06-.38,1.96-1.12,2.71s-1.65,1.12-2.71,1.12-1.97-.38-2.72-1.12-1.12-1.65-1.12-2.71.38-1.96,1.13-2.72,1.66-1.13,2.72-1.13,1.96.38,2.71,1.12,1.12,1.66,1.12,2.72ZM14.84,5.95c0-.36-.12-.66-.38-.91s-.55-.38-.9-.38-.65.13-.91.38-.38.55-.38.91.12.65.38.9.55.38.91.38.65-.12.9-.38.38-.55.38-.9Z"/>
    <path class="cls-1" d="M9.96,12.76h-1.17c-.36,0-.66.12-.91.38s-.38.55-.38.9c0,1.06-.38,1.96-1.12,2.71s-1.66,1.12-2.72,1.12h-1.17v-2.55h1.17c.36,0,.66-.12.91-.38s.38-.55.38-.9c0-1.06.38-1.96,1.12-2.71s1.66-1.12,2.72-1.12h1.17v2.56Z"/>
    <path class="cls-1" d="M17.61,17.79h-2.56v-3.63c0-.36-.12-.66-.38-.91s-.55-.38-.9-.38-.65.12-.9.38-.38.55-.38.91v3.63h-2.56v-3.63c0-1.06.38-1.97,1.12-2.72s1.65-1.12,2.71-1.12,1.96.38,2.71,1.12,1.12,1.66,1.12,2.72v3.63ZM14.3,17.27c0,.14-.05.27-.16.37s-.23.15-.38.15-.27-.05-.37-.15-.16-.22-.16-.37.05-.27.16-.37.23-.16.37-.16.27.05.38.16.16.23.16.37Z"/>
  </g>
</svg>