<?xml version="1.0" encoding="UTF-8"?>
<svg id="Capa_1" data-name="Capa 1" xmlns="http://www.w3.org/2000/svg" viewBox="0 0 529.1 529.1">
  <defs>
    <style>
      .cls-1 {
        fill: #fff;
      }
    </style>
  </defs>
  <path class="cls-1" d="M517.44,186.64c-25.68-83.46-91.54-149.31-175-174.98-24.62-7.58-50.78-11.66-77.89-11.66s-53.27,4.08-77.89,11.66C103.2,37.33,37.34,103.18,11.66,186.64,4.08,211.27,0,237.43,0,264.55s4.08,53.28,11.66,77.91c25.68,83.46,91.54,149.31,175,174.98,24.62,7.58,50.78,11.66,77.89,11.66s53.27-4.08,77.89-11.66c83.46-25.67,149.32-91.52,175-174.98,7.58-24.63,11.66-50.79,11.66-77.91s-4.08-53.28-11.66-77.91ZM264.55,469.05c0-112.95-91.57-204.5-204.5-204.5,112.93,0,204.5-91.56,204.5-204.49,0,112.93,91.56,204.49,204.49,204.49-112.93,0-204.49,91.55-204.49,204.5Z"/>
</svg>